TITLE ""
FILE "1Q_t_0639-0648.mp3" MP3
  TRACK 01 AUDIO
    TITLE "1Q_t_0639-0648_01"
    INDEX 01 00:00:00
  TRACK 02 AUDIO
    TITLE "1Q_t_0639-0648_02"
    INDEX 01 00:01:23
  TRACK 03 AUDIO
    TITLE "1Q_t_0639-0648_03"
    INDEX 01 00:01:33
  TRACK 04 AUDIO
    TITLE "1Q_t_0639-0648_04"
    INDEX 01 00:03:40
  TRACK 05 AUDIO
    TITLE "1Q_t_0639-0648_05"
    INDEX 01 00:03:48
  TRACK 06 AUDIO
    TITLE "1Q_t_0639-0648_06"
    INDEX 01 00:09:27
  TRACK 07 AUDIO
    TITLE "1Q_t_0639-0648_07"
    INDEX 01 00:09:74
  TRACK 08 AUDIO
    TITLE "1Q_t_0639-0648_08"
    INDEX 01 00:11:36
  TRACK 09 AUDIO
    TITLE "1Q_t_0639-0648_09"
    INDEX 01 00:11:45
  TRACK 10 AUDIO
    TITLE "1Q_t_0639-0648_10"
    INDEX 01 00:12:53
  TRACK 11 AUDIO
    TITLE "1Q_t_0639-0648_11"
    INDEX 01 00:12:61
  TRACK 12 AUDIO
    TITLE "1Q_t_0639-0648_12"
    INDEX 01 00:19:04
  TRACK 13 AUDIO
    TITLE "1Q_t_0639-0648_13"
    INDEX 01 00:19:49
  TRACK 14 AUDIO
    TITLE "1Q_t_0639-0648_14"
    INDEX 01 00:20:54
  TRACK 15 AUDIO
    TITLE "1Q_t_0639-0648_15"
    INDEX 01 00:20:64
  TRACK 16 AUDIO
    TITLE "1Q_t_0639-0648_16"
    INDEX 01 00:21:69
  TRACK 17 AUDIO
    TITLE "1Q_t_0639-0648_17"
    INDEX 01 00:22:02
  TRACK 18 AUDIO
    TITLE "1Q_t_0639-0648_18"
    INDEX 01 00:29:65
  TRACK 19 AUDIO
    TITLE "1Q_t_0639-0648_19"
    INDEX 01 00:30:33
  TRACK 20 AUDIO
    TITLE "1Q_t_0639-0648_20"
    INDEX 01 00:31:60
  TRACK 21 AUDIO
    TITLE "1Q_t_0639-0648_21"
    INDEX 01 00:31:68
  TRACK 22 AUDIO
    TITLE "1Q_t_0639-0648_22"
    INDEX 01 00:33:18
  TRACK 23 AUDIO
    TITLE "1Q_t_0639-0648_23"
    INDEX 01 00:33:25
  TRACK 24 AUDIO
    TITLE "1Q_t_0639-0648_24"
    INDEX 01 00:38:34
  TRACK 25 AUDIO
    TITLE "1Q_t_0639-0648_25"
    INDEX 01 00:39:04
  TRACK 26 AUDIO
    TITLE "1Q_t_0639-0648_26"
    INDEX 01 00:40:39
  TRACK 27 AUDIO
    TITLE "1Q_t_0639-0648_27"
    INDEX 01 00:40:47
  TRACK 28 AUDIO
    TITLE "1Q_t_0639-0648_28"
    INDEX 01 00:44:60
  TRACK 29 AUDIO
    TITLE "1Q_t_0639-0648_29"
    INDEX 01 00:44:64
  TRACK 30 AUDIO
    TITLE "1Q_t_0639-0648_30"
    INDEX 01 00:50:75
  TRACK 31 AUDIO
    TITLE "1Q_t_0639-0648_31"
    INDEX 01 00:51:39
  TRACK 32 AUDIO
    TITLE "1Q_t_0639-0648_32"
    INDEX 01 00:53:12
  TRACK 33 AUDIO
    TITLE "1Q_t_0639-0648_33"
    INDEX 01 00:53:22
  TRACK 34 AUDIO
    TITLE "1Q_t_0639-0648_34"
    INDEX 01 00:54:67
  TRACK 35 AUDIO
    TITLE "1Q_t_0639-0648_35"
    INDEX 01 00:54:73
  TRACK 36 AUDIO
    TITLE "1Q_t_0639-0648_36"
    INDEX 01 01:01:20
  TRACK 37 AUDIO
    TITLE "1Q_t_0639-0648_37"
    INDEX 01 01:01:69
  TRACK 38 AUDIO
    TITLE "1Q_t_0639-0648_38"
    INDEX 01 01:02:64
  TRACK 39 AUDIO
    TITLE "1Q_t_0639-0648_39"
    INDEX 01 01:02:72
  TRACK 40 AUDIO
    TITLE "1Q_t_0639-0648_40"
    INDEX 01 01:03:66
  TRACK 41 AUDIO
    TITLE "1Q_t_0639-0648_41"
    INDEX 01 01:03:72
  TRACK 42 AUDIO
    TITLE "1Q_t_0639-0648_42"
    INDEX 01 01:10:25
  TRACK 43 AUDIO
    TITLE "1Q_t_0639-0648_43"
    INDEX 01 01:10:72
  TRACK 44 AUDIO
    TITLE "1Q_t_0639-0648_44"
    INDEX 01 01:12:41
  TRACK 45 AUDIO
    TITLE "1Q_t_0639-0648_45"
    INDEX 01 01:12:47
  TRACK 46 AUDIO
    TITLE "1Q_t_0639-0648_46"
    INDEX 01 01:13:74
  TRACK 47 AUDIO
    TITLE "1Q_t_0639-0648_47"
    INDEX 01 01:14:07
  TRACK 48 AUDIO
    TITLE "1Q_t_0639-0648_48"
    INDEX 01 01:22:40
  TRACK 49 AUDIO
    TITLE "1Q_t_0639-0648_49"
    INDEX 01 01:23:10
  TRACK 50 AUDIO
    TITLE "1Q_t_0639-0648_50"
    INDEX 01 01:24:33
  TRACK 51 AUDIO
    TITLE "1Q_t_0639-0648_51"
    INDEX 01 01:24:40
  TRACK 52 AUDIO
    TITLE "1Q_t_0639-0648_52"
    INDEX 01 01:26:30
  TRACK 53 AUDIO
    TITLE "1Q_t_0639-0648_53"
    INDEX 01 01:26:37
  TRACK 54 AUDIO
    TITLE "1Q_t_0639-0648_54"
    INDEX 01 01:33:12
  TRACK 55 AUDIO
    TITLE "1Q_t_0639-0648_55"
    INDEX 01 01:33:57
  TRACK 56 AUDIO
    TITLE "1Q_t_0639-0648_56"
    INDEX 01 01:35:13
  TRACK 57 AUDIO
    TITLE "1Q_t_0639-0648_57"
    INDEX 01 01:35:21
  TRACK 58 AUDIO
    TITLE "1Q_t_0639-0648_58"
    INDEX 01 01:37:55
  TRACK 59 AUDIO
    TITLE "1Q_t_0639-0648_59"
    INDEX 01 01:37:63
  TRACK 60 AUDIO
    TITLE "1Q_t_0639-0648_60"
    INDEX 01 01:44:49
